<?xml version="1.0" encoding="UTF-8"?>
<svg xmlns="http://www.w3.org/2000/svg" version="1.1" xmlns:xlink="http://www.w3.org/1999/xlink" viewBox="0 0 595.28 310.11">
  <defs>
    <style>
      .cls-1 {
        fill: url(#Degradado_sin_nombre_25-7);
      }

      .cls-2 {
        fill: #2d4390;
        font-family: Raleway-Black, Raleway;
        font-size: 60px;
        font-weight: 800;
      }

      .cls-3 {
        fill: url(#Degradado_sin_nombre_25-5);
      }

      .cls-4 {
        fill: url(#Degradado_sin_nombre_25-4);
      }

      .cls-5 {
        fill: url(#Degradado_sin_nombre_25);
      }

      .cls-6 {
        fill: url(#Degradado_sin_nombre_25-6);
      }

      .cls-7 {
        fill: url(#Degradado_sin_nombre_25-9);
      }

      .cls-8 {
        fill: url(#Degradado_sin_nombre_25-2);
      }

      .cls-9 {
        fill: url(#Degradado_sin_nombre_25-3);
      }

      .cls-10 {
        fill: url(#Degradado_sin_nombre_25-8);
      }
    </style>
    <linearGradient id="Degradado_sin_nombre_25" data-name="Degradado sin nombre 25" x1="303.84" y1="194.37" x2="501.77" y2="194.37" gradientUnits="userSpaceOnUse">
      <stop offset="0" stop-color="#293387"/>
      <stop offset="1" stop-color="#38549b"/>
    </linearGradient>
    <linearGradient id="Degradado_sin_nombre_25-2" data-name="Degradado sin nombre 25" x1="394.52" y1="153.74" x2="544.95" y2="153.74" xlink:href="#Degradado_sin_nombre_25"/>
    <linearGradient id="Degradado_sin_nombre_25-3" data-name="Degradado sin nombre 25" x1="307.07" y1="78.04" x2="581.1" y2="78.04" xlink:href="#Degradado_sin_nombre_25"/>
    <linearGradient id="Degradado_sin_nombre_25-4" data-name="Degradado sin nombre 25" x1="402.47" y1="73.26" x2="544.95" y2="73.26" xlink:href="#Degradado_sin_nombre_25"/>
    <linearGradient id="Degradado_sin_nombre_25-5" data-name="Degradado sin nombre 25" x1="93.51" y1="194.79" x2="291.44" y2="194.79" xlink:href="#Degradado_sin_nombre_25"/>
    <linearGradient id="Degradado_sin_nombre_25-6" data-name="Degradado sin nombre 25" x1="50.33" y1="154.17" x2="200.75" y2="154.17" xlink:href="#Degradado_sin_nombre_25"/>
    <linearGradient id="Degradado_sin_nombre_25-7" data-name="Degradado sin nombre 25" x1="14.17" y1="78.46" x2="288.21" y2="78.46" xlink:href="#Degradado_sin_nombre_25"/>
    <linearGradient id="Degradado_sin_nombre_25-8" data-name="Degradado sin nombre 25" x1="50.33" y1="73.69" x2="192.8" y2="73.69" xlink:href="#Degradado_sin_nombre_25"/>
    <linearGradient id="Degradado_sin_nombre_25-9" data-name="Degradado sin nombre 25" x1="250.08" y1="120.96" x2="345.2" y2="120.96" xlink:href="#Degradado_sin_nombre_25"/>
  </defs>
  <!-- Generator: Adobe Illustrator 28.7.1, SVG Export Plug-In . SVG Version: 1.2.0 Build 142)  -->
  <g>
    <g id="Capa_1">
      <g>
        <path class="cls-5" d="M483.69,162.43c-7.37,0-13.7,4.42-16.52,10.75h-88.38s-.02.01-.03.02l-1.85,2.62c-15.77,22.38-40.41,36.15-67.26,38.05-3.27.23-5.81,2.92-5.81,6.19,0,3.59,3.04,6.48,6.62,6.23,29.53-2.06,56.69-16.71,74.69-40.64.01,0,.02-.01.03-.02h81.17c2.21,7.49,9.13,12.96,17.33,12.96,9.98,0,18.08-8.09,18.08-18.08s-8.09-18.08-18.08-18.08ZM483.37,188.83c-4.63,0-8.39-3.76-8.39-8.39s3.76-8.39,8.39-8.39,8.39,3.76,8.39,8.39-3.76,8.39-8.39,8.39Z"/>
        <path class="cls-8" d="M526.87,135.67c-7.56,0-14.02,4.64-16.72,11.23h-109.4c-3.44,0-6.22,2.79-6.22,6.22s2.79,6.22,6.22,6.22h108.94c2.36,7.24,9.15,12.48,17.18,12.48,9.98,0,18.08-8.09,18.08-18.08s-8.09-18.08-18.08-18.08Z"/>
        <path class="cls-9" d="M563.03,86.79c-7.15,0-13.31,4.16-16.24,10.18h-68.06l-24.7,24.7h-48.31c-1.13-51.45-40.63-94.33-91.8-99.68-3.56-.37-6.7,2.38-6.84,5.96-.13,3.27,2.3,6.08,5.56,6.42,46.83,4.91,82.53,45.57,80.59,93.27l-.26,6.47h66.23l24.7-24.7h61.66c2.02,7.78,9.07,13.53,17.48,13.53,9.98,0,18.08-8.09,18.08-18.08s-8.09-18.08-18.08-18.08ZM563.37,113.34c-4.63,0-8.39-3.76-8.39-8.39s3.76-8.39,8.39-8.39,8.39,3.76,8.39,8.39-3.76,8.39-8.39,8.39Z"/>
        <path class="cls-4" d="M420.55,91.34c7.79,0,14.41-4.94,16.95-11.85h72.42c2.54,6.91,9.16,11.85,16.95,11.85,9.98,0,18.08-8.09,18.08-18.08s-8.09-18.08-18.08-18.08c-7.79,0-14.41,4.94-16.95,11.85h-72.42c-2.54-6.91-9.16-11.85-16.95-11.85-9.98,0-18.08,8.09-18.08,18.08s8.09,18.08,18.08,18.08ZM420.77,64.87c4.63,0,8.39,3.76,8.39,8.39s-3.76,8.39-8.39,8.39-8.39-3.76-8.39-8.39,3.76-8.39,8.39-8.39Z"/>
        <path class="cls-3" d="M285.62,214.29c-26.85-1.9-51.49-15.66-67.26-38.05l-1.85-2.62s-.02-.01-.03-.02h-88.38c-2.81-6.33-9.14-10.75-16.52-10.75-9.98,0-18.08,8.09-18.08,18.08s8.09,18.08,18.08,18.08c8.2,0,15.12-5.47,17.33-12.96h81.17s.02.01.03.02c18.01,23.93,45.16,38.58,74.69,40.64,3.58.25,6.62-2.63,6.62-6.23,0-3.28-2.54-5.96-5.81-6.19ZM111.59,189.58c-4.63,0-8.39-3.76-8.39-8.39s3.76-8.39,8.39-8.39,8.39,3.76,8.39,8.39-3.76,8.39-8.39,8.39Z"/>
        <path class="cls-6" d="M200.75,153.54c0-3.44-2.79-6.22-6.22-6.22h-109.4c-2.7-6.58-9.17-11.23-16.72-11.23-9.98,0-18.08,8.09-18.08,18.08s8.09,18.08,18.08,18.08c8.03,0,14.83-5.24,17.18-12.48h108.94c3.44,0,6.22-2.79,6.22-6.22Z"/>
        <path class="cls-1" d="M136.09,134.54h66.23l-.26-6.47c-1.93-47.7,33.76-88.36,80.59-93.27,3.26-.34,5.69-3.15,5.55-6.42-.14-3.58-3.28-6.33-6.84-5.96-51.18,5.35-90.67,48.22-91.8,99.68h-48.31l-24.7-24.7H48.49c-2.93-6.02-9.09-10.18-16.24-10.18-9.98,0-18.08,8.09-18.08,18.08s8.09,18.08,18.08,18.08c8.41,0,15.46-5.75,17.48-13.53h61.66l24.7,24.7ZM31.91,113.77c-4.63,0-8.39-3.76-8.39-8.39s3.76-8.39,8.39-8.39,8.39,3.76,8.39,8.39-3.76,8.39-8.39,8.39Z"/>
        <path class="cls-10" d="M68.4,91.77c7.79,0,14.41-4.94,16.95-11.85h72.42c2.54,6.91,9.16,11.85,16.95,11.85,9.98,0,18.08-8.09,18.08-18.08s-8.09-18.08-18.08-18.08c-7.79,0-14.41,4.94-16.95,11.85h-72.42c-2.54-6.91-9.16-11.85-16.95-11.85-9.98,0-18.08,8.09-18.08,18.08s8.09,18.08,18.08,18.08ZM174.67,65.3c4.63,0,8.39,3.76,8.39,8.39s-3.76,8.39-8.39,8.39-8.39-3.76-8.39-8.39,3.76-8.39,8.39-8.39Z"/>
        <path class="cls-7" d="M343.21,158.21c2.04-5.74,2.25-11.7,1.77-17.71-.77-9.66-5.38-17.09-13.65-21.98-4.04-2.39-8.37-4.43-12.8-5.97-7.77-2.71-15.73-4.9-23.6-7.33-3.07-.95-6.11-2.04-8.54-4.18-1.09-.96-2.1-2.32-2.52-3.69-1.3-4.23.04-9.02,5.54-11.02,5.13-1.87,10.41-1.74,15.64-.68,8.91,1.8,17.14,5.32,24.72,10.48,3.96-7.48,7.93-14.99,11.95-22.57-7.94-4.34-15.97-8.09-24.59-10.47-12.27-3.39-24.51-3.73-36.65.5-9.66,3.37-17.27,9.27-21.83,18.62-3.35,6.87-3.98,14.21-3.23,21.71.76,7.56,4.14,13.64,10.26,18.19,3.98,2.95,8.35,5.22,13,6.82,7.61,2.62,15.35,4.86,22.96,7.48,3.52,1.21,6.96,2.77,10.25,4.51,2.82,1.48,4,4.2,3.84,7.36-.16,3.36-1.98,5.77-5.08,6.8-2.6.86-5.39,1.41-8.12,1.55-7.81.42-15.25-1.52-22.5-4.25-6.33-2.39-12.38-5.32-17.92-9.45-4.01,7.97-7.99,15.85-12.04,23.9,2.02,1.2,3.91,2.43,5.91,3.49,13.89,7.36,28.75,10.98,44.43,11.16,8.16.09,16.18-1.03,23.8-4.15,9-3.68,15.68-9.75,19-19.08Z"/>
        <text class="cls-2" transform="translate(106.53 293.64)"><tspan x="0" y="0">SOMNOTECH</tspan></text>
      </g>
    </g>
  </g>
</svg>